<?xml version="1.0" standalone="no"?>
<!DOCTYPE svg PUBLIC "-//W3C//DTD SVG 20010904//EN"
 "http://www.w3.org/TR/2001/REC-SVG-20010904/DTD/svg10.dtd">
<svg version="1.0" xmlns="http://www.w3.org/2000/svg"
 width="209.000000pt" height="209.000000pt" viewBox="0 0 209.000000 209.000000"
 preserveAspectRatio="xMidYMid meet">

<g transform="translate(0.000000,209.000000) scale(0.100000,-0.100000)"
fill="#000000" stroke="none">
<path d="M1290 1139 l0 -590 273 3 272 3 63 34 c107 58 171 159 180 282 9 136
-51 244 -182 323 -80 49 -92 64 -113 143 -54 211 -226 356 -455 387 l-38 5 0
-590z"/>
<path d="M610 1095 l0 -136 68 3 67 3 0 130 0 130 -67 3 -68 3 0 -136z"/>
<path d="M340 1060 l0 -100 29 0 c58 0 61 5 61 96 0 91 -8 104 -64 104 l-26 0
0 -100z"/>
<path d="M120 1035 l0 -75 30 0 c35 0 50 23 50 79 0 45 -20 71 -56 71 -23 0
-24 -2 -24 -75z"/>
<path d="M50 864 c0 -38 3 -45 18 -42 12 2 18 15 20 46 3 37 1 42 -17 42 -18
0 -21 -6 -21 -46z"/>
<path d="M250 806 l0 -106 33 0 c60 0 68 14 65 115 l-3 90 -47 3 -48 3 0 -105z"/>
<path d="M480 825 c0 -75 2 -85 18 -85 10 0 28 7 40 16 18 13 22 25 22 73 0
64 -11 81 -52 81 l-28 0 0 -85z"/>
<path d="M790 725 l0 -188 73 8 c107 10 107 10 107 180 0 177 0 178 -104 183
l-76 4 0 -187z"/>
<path d="M510 650 c0 -62 7 -71 35 -44 24 25 16 85 -12 95 -22 8 -23 6 -23
-51z"/>
</g>
</svg>
